<svg id="Group_1309" data-name="Group 1309" xmlns="http://www.w3.org/2000/svg" width="38.015" height="13.559" viewBox="0 0 38.015 13.559">
  <path id="Path_3761" data-name="Path 3761" d="M1048.883,118.916h2.843v4.812h5.522v-4.812h2.843v12.9h-2.843v-5.577h-5.522v5.577h-2.843Z" transform="translate(-1048.883 -118.588)" fill="#fff"/>
  <path id="Path_3762" data-name="Path 3762" d="M1069.919,125.171a7.283,7.283,0,0,1,.52-2.807,6.146,6.146,0,0,1,1.448-2.141,6.386,6.386,0,0,1,2.2-1.358,8.447,8.447,0,0,1,5.577,0,6.389,6.389,0,0,1,2.2,1.358,6.146,6.146,0,0,1,1.449,2.141,7.84,7.84,0,0,1,0,5.614,6.132,6.132,0,0,1-1.449,2.141,6.371,6.371,0,0,1-2.2,1.358,8.437,8.437,0,0,1-5.577,0,6.368,6.368,0,0,1-2.2-1.358,6.132,6.132,0,0,1-1.448-2.141A7.28,7.28,0,0,1,1069.919,125.171Zm2.952,0a4.736,4.736,0,0,0,.282,1.667,3.822,3.822,0,0,0,.811,1.312,3.7,3.7,0,0,0,1.266.865,4.547,4.547,0,0,0,3.3,0,3.7,3.7,0,0,0,1.266-.865,3.832,3.832,0,0,0,.811-1.312,5.035,5.035,0,0,0,0-3.326,3.808,3.808,0,0,0-.811-1.322,3.711,3.711,0,0,0-1.266-.866,4.547,4.547,0,0,0-3.3,0,3.709,3.709,0,0,0-1.266.866,3.8,3.8,0,0,0-.811,1.322A4.756,4.756,0,0,0,1072.871,125.171Z" transform="translate(-1056.779 -118.391)" fill="#fff"/>
  <path id="Path_3763" data-name="Path 3763" d="M1097.086,121.431h-3.681v-2.515h10.205v2.515h-3.681v10.388h-2.843Z" transform="translate(-1065.595 -118.588)" fill="#fff"/>
</svg>
