<svg id="Group_1308" data-name="Group 1308" xmlns="http://www.w3.org/2000/svg" width="212.053" height="107.39" viewBox="0 0 212.053 107.39">
  <path id="Path_3751" data-name="Path 3751" d="M1023.911,191.807c-.667,0-.122-.364-.122-.364,13.58-5.093,31.1-13.094,31.1-24.612,0-11.639-4.79-20.732-19.4-20.732-29.523,0-59.651,25.521-59.651,40.98,0,6.5,3.88,7.82,3.88,7.82-2.546-21.278,40.495-39.1,57.833-39.1,11.959,0,9.9,7.216,2.728,14.913-9.03,9.695-26.089,20.352-32.774,20.129,4.362-5.469,14.263-14.457,24.59-21.039-.182-1.515-2.3-5.759-5.213-5.759-5.627,0-18.608,11.641-28.744,23.767-.734.383-2.389.763-5.629-.549a8.116,8.116,0,0,0-.234,8.077c-4.663,6.491-7.834,12.433-7.834,15.99,0,7.031,6.007,10.426,6.007,10.426a1.691,1.691,0,0,0,.607-.667c1.082-8.3,8.954-18.3,11.288-21.113a3.759,3.759,0,0,0,2.048,3.108c.849-.545,9.518-6.481,16.247-6.481,3.91,0,6.141,1.425,6.827,3.466-17.073,7.246-29.542,15.062-33.682,21.747-5,8.072-.568,14.791,6.547,14.791,8.608,0,36.676-18.55,36.676-35.039C1037.005,193.262,1027.305,191.019,1023.911,191.807ZM1003,223.573c-5.247,0,13.716-13.57,22.394-16.74C1019.452,214.37,1004.852,223.573,1003,223.573Z" transform="translate(-975.838 -146.099)" fill="#fff"/>
  <path id="Path_3752" data-name="Path 3752" d="M1149.09,230.478a97.932,97.932,0,0,0-10.548.6c7.459-12.66,14.064-24.607,19.975-27.634-.394-4.123-4.486-2.971-4.486-2.971-.849.121-.607-.485-.607-.485,0-2.425-1.576-7.335-6-7.335-5.6,0-13.76,6.965-19.563,14.878-.46.539-.994,1.181-1.593,1.914-1.637,2-10.048,11.851-12.549,11.033-.74-.242.088-2.783,2.274-5.547,4.066-5.144,11.321-11.093,11.321-15.868,0-6.775-13.822-4.274-12.988-11.927-.3-.606-1.031-.242-1.031-.242-.364.242-2.122,2.243-2,6.426,0,.036,0,.071,0,.106.157,4.105,2.482,5.714,2.482,5.714-.968,5.137-3.9,6.421-5.3,6.743,1.342-1.815,2.213-3.345,2.213-4.439a4.662,4.662,0,0,0-6.79-4.3c-1.137,4.031-16.6,24.369-20.611,24.369-1.414,0-.4-2.36,2.152-5.441,2.8-3.389,7.318-7.7,9.366-11.821,2.117-4.261,1.206-9.351-2.425-9.351-6.3,0-16.408,11.942-16.408,13.4,0,.682,1.242.849,1.242.849.485-.485,6.955-6.032,8.543-6.032,1.563,0,.257,2.654-2.455,5.956-3.033,3.693-7.742,8.291-10.5,12.822-3.246,5.328-3.509,10.654,1.031,10.654,5.282,0,13.034-9.032,13.4-9.457s.364.061.364.061c-1.106,1.7-1.788,9.093,4.183,9.093a3.781,3.781,0,0,0,2.97-1.152c-3.176-6.256,6.138-15.854,11.847-22.809a4.519,4.519,0,0,0,.672.061c3.728.091,8.4-5.381,9.245-6.289s3.334-.8,3.334-.182c0,2.061-10.646,9.574-15.853,18.019-3.584,5.815-3.986,12.23,1,12.23,6.9,0,15.709-12.235,16.991-14.069-2.48,6.817-1.562,12.253,2.168,12.253,4.907,0,12.484-9.459,12.909-9.944s.638-.8.848-.728c.478.167-.061.849-.061.849-2.305,3.848-4.866,7.968-7.653,11.826-23.591,4.341-46.187,15.852-46.187,28.1,0,3.99,5.8,8.355,10.253,8.355,12.822,0,28.429-12.352,38.01-27.37q.7-1.1,1.39-2.211c15.325-1.212,30.478,2.753,34.256,14.941.06.667.121.546.121.546C1175.643,252.3,1184.281,230.478,1149.09,230.478Zm-26.643,10.912c-13,12.309-27.279,17.731-27.279,14.852,0-3.6,11.783-11.2,26.006-14.943q.908-.239,1.83-.455C1122.818,241.027,1122.635,241.213,1122.447,241.391Zm8.457-22.139c-2.372,0,.751-5.9,5.365-11.142,3.874-4.4,8.849-8.275,12-8.275.533,0,1.637.182,1.682,1.865C1145.135,205.518,1133.541,219.251,1130.9,219.251Z" transform="translate(-1011.329 -161.371)" fill="#fff"/>
  <path id="Path_3753" data-name="Path 3753" d="M1267.1,190.956c-4.582,0-8.021,3.274-10.371,8.312a9.587,9.587,0,0,0-.829,1.675c-3.138,7.638-16.413,18.55-17.535,17.9-1.242-.721,1.067-4.018,4.577-7.85,3.752-4.1,8.578-7.729,8.578-11.306,0-6.79-14.17-6.062-10.185-15.034.587-1.319-.909-2.061-.909-2.061a11.36,11.36,0,0,0-6.123,10.184,6.7,6.7,0,0,0,1.429,4.58c-.944,3.208-15.943,22.517-24.283,22.517-3.758,0-2.241-5.259-1.993-5.948.409-1.137,1.144-.72,1.144-.72a2.51,2.51,0,0,0,1.515.364c3.819,0,13.192-5.88,16.671-11.76,2.672-4.517,2.3-9.4-2.971-9.4-8.681,0-19.438,10.837-23.7,20.732-3.27,7.587-2.515,14.853,4.668,14.853,13.679,0,29.682-24.077,32.995-28.565,2.281.483,4.409.425,4.409,1.649,0,2.955-10.927,9.763-15.883,17.141-3.482,5.184-3.229,10.867,2.425,10.867,6.225,0,19.6-14.664,22.814-18.456a49.809,49.809,0,0,1-2.445,8.332c-2.857,7.124-7.345,13.58-11.579,13.58a2.6,2.6,0,0,1-2.728-1.758.731.731,0,0,0-.667-.182c-.849.788-3.182,9.487,6.638,9.487,7,0,12.8-6.3,15.55-14.458,2.182-6.484,1.858-14.007,3.637-19.642,1.715-5.432,5.667-10.063,10.184-10.063C1272.131,195.927,1271.711,190.956,1267.1,190.956Zm-42.677,7.335c3.925,0-7.623,10.245-10.669,10.245C1210.661,208.535,1220.755,198.291,1224.422,198.291Z" transform="translate(-1060.078 -159.797)" fill="#fff"/>
</svg>
